<?xml version="1.0"?>
<svg xmlns="http://www.w3.org/2000/svg" xmlns:xlink="http://www.w3.org/1999/xlink" xmlns:svgjs="http://svgjs.com/svgjs" version="1.1" width="512" height="512" x="0" y="0" viewBox="0 0 512 512" style="enable-background:new 0 0 512 512" xml:space="preserve" class=""><g transform="matrix(1,0,0,-1,0,511.99998474121094)">
<g xmlns="http://www.w3.org/2000/svg">
	<g>
		<path d="M431.71,77.189H15c-8.284,0-15,6.716-15,15v241.1c0,8.284,6.716,15,15,15h20.174V168.007    c0-19.006,15.408-34.414,34.414-34.414H446.71V92.189C446.71,83.905,439.994,77.189,431.71,77.189z" fill="#ffffff" data-original="#000000" style="" class=""/>
	</g>
</g>
<g xmlns="http://www.w3.org/2000/svg">
	<g>
		<path d="M65.29,287.162v132.649c0,8.284,6.716,15,15,15H497c8.284,0,15-6.716,15-15V287.162H65.29z M433.058,379.837    c-3.456,0-17.27-3.285-17.27-3.285s-13.814,3.285-17.27,3.285c-12.58,0-22.779-10.198-22.779-22.779    c0-12.58,10.198-22.779,22.779-22.779c3.456,0,17.27,3.285,17.27,3.285s13.814-3.285,17.27-3.285    c12.58,0,22.779,10.198,22.779,22.779S445.639,379.837,433.058,379.837z" fill="#ffffff" data-original="#000000" style="" class=""/>
	</g>
</g>
<g xmlns="http://www.w3.org/2000/svg">
	<g>
		<path d="M497,163.709H80.29c-8.284,0-15,6.716-15,15v17.726H512v-17.726C512,170.425,505.284,163.709,497,163.709z" fill="#ffffff" data-original="#000000" style="" class=""/>
	</g>
</g>
<g xmlns="http://www.w3.org/2000/svg">
	<g>
		<rect x="65.29" y="226.55" width="446.71" height="30.494" fill="#ffffff" data-original="#000000" style="" class=""/>
	</g>
</g>

</g></svg>
